<svg width="14" height="12" viewBox="0 0 14 12" fill="none" xmlns="http://www.w3.org/2000/svg">
<path fill-rule="evenodd" clip-rule="evenodd" d="M12.25 1.77083H1.75C1.34729 1.77083 1.02083 2.09729 1.02083 2.5V9.5C1.02083 9.90271 1.34729 10.2292 1.75 10.2292H12.25C12.6527 10.2292 12.9792 9.90271 12.9792 9.5V2.5C12.9792 2.09729 12.6527 1.77083 12.25 1.77083ZM1.75 0.75C0.783502 0.75 0 1.5335 0 2.5V9.5C0 10.4665 0.783502 11.25 1.75 11.25H12.25C13.2165 11.25 14 10.4665 14 9.5V2.5C14 1.5335 13.2165 0.75 12.25 0.75H1.75Z" fill="#4E5562"/>
<path fill-rule="evenodd" clip-rule="evenodd" d="M1.82292 8.91667C1.82292 8.63477 2.05144 8.40625 2.33333 8.40625H4.08333C4.36523 8.40625 4.59375 8.63477 4.59375 8.91667C4.59375 9.19856 4.36523 9.42708 4.08333 9.42708H2.33333C2.05144 9.42708 1.82292 9.19856 1.82292 8.91667Z" fill="#4E5562"/>
<path fill-rule="evenodd" clip-rule="evenodd" d="M1.82292 3.66667C1.82292 3.38477 2.05144 3.15625 2.33333 3.15625H11.6667C11.9486 3.15625 12.1771 3.38477 12.1771 3.66667C12.1771 3.94856 11.9486 4.17708 11.6667 4.17708H2.33333C2.05144 4.17708 1.82292 3.94856 1.82292 3.66667Z" fill="#4E5562"/>
</svg>
