<svg width="18" height="18" viewBox="0 0 18 18" fill="none" xmlns="http://www.w3.org/2000/svg">
<path fill-rule="evenodd" clip-rule="evenodd" d="M8.97987 1.92781C9.10687 2.15315 9.08965 2.43208 8.93589 2.64009C8.28188 3.52489 7.96717 4.61504 8.04899 5.71227C8.13081 6.8095 8.60374 7.84091 9.38175 8.61892C10.1598 9.39693 11.1912 9.86986 12.2884 9.95168C13.3856 10.0335 14.4758 9.71879 15.3606 9.06478C15.8152 8.73988 16.4425 9.09545 16.4041 9.6529C16.2747 11.0537 15.749 12.3886 14.8885 13.5015C14.0281 14.6144 12.8685 15.4592 11.5454 15.9371C10.2223 16.415 8.79049 16.5063 7.41746 16.2001C6.04444 15.8939 4.78701 15.2031 3.79229 14.2084C2.79757 13.2137 2.10672 11.9562 1.80057 10.5832C1.49442 9.21018 1.58563 7.77837 2.06353 6.45529C2.54144 5.13221 3.38627 3.97261 4.49916 3.11215C5.61206 2.2517 6.947 1.72599 8.34777 1.59655C8.60534 1.57274 8.85287 1.70246 8.97987 1.92781ZM14.825 10.8539C13.9954 11.186 13.095 11.328 12.1908 11.2605C10.7801 11.1553 9.45397 10.5473 8.45367 9.547C7.45337 8.5467 6.84533 7.22059 6.74012 5.80987C6.6727 4.9057 6.81471 4.00527 7.14677 3.17569C6.48353 3.39113 5.85895 3.71986 5.30197 4.1505C4.3863 4.85846 3.69119 5.81257 3.29797 6.90118C2.90476 7.98978 2.82971 9.16786 3.08161 10.2976C3.33351 11.4273 3.90193 12.4619 4.72037 13.2803C5.5388 14.0987 6.5734 14.6672 7.70311 14.9191C8.83281 15.171 10.0109 15.0959 11.0995 14.7027C12.1881 14.3095 13.1422 13.6144 13.8502 12.6987C14.2808 12.1417 14.6095 11.5171 14.825 10.8539Z" fill="#E0E5EB"/>
</svg>
