<svg width="12" height="14" viewBox="0 0 12 14" fill="none" xmlns="http://www.w3.org/2000/svg">
<path fill-rule="evenodd" clip-rule="evenodd" d="M8.8444 1.16667C8.8444 0.884771 8.61588 0.65625 8.33399 0.65625C8.05209 0.65625 7.82357 0.884771 7.82357 1.16667V1.82292H4.17773V1.16667C4.17773 0.884771 3.94921 0.65625 3.66732 0.65625C3.38542 0.65625 3.1569 0.884771 3.1569 1.16667V1.82292H1.91732C0.99109 1.82292 0.240234 2.57377 0.240234 3.5V11.6667C0.240234 12.5929 0.99109 13.3438 1.91732 13.3438H10.084C11.0102 13.3438 11.7611 12.5929 11.7611 11.6667V3.5C11.7611 2.57377 11.0102 1.82292 10.084 1.82292H8.8444V1.16667ZM10.7402 5.32292V3.5C10.7402 3.13756 10.4464 2.84375 10.084 2.84375H8.8444V3.5C8.8444 3.7819 8.61588 4.01042 8.33399 4.01042C8.05209 4.01042 7.82357 3.7819 7.82357 3.5V2.84375H4.17773V3.5C4.17773 3.7819 3.94921 4.01042 3.66732 4.01042C3.38542 4.01042 3.1569 3.7819 3.1569 3.5V2.84375H1.91732C1.55488 2.84375 1.26107 3.13756 1.26107 3.5V5.32292H10.7402ZM1.26107 6.34375H10.7402V11.6667C10.7402 12.0291 10.4464 12.3229 10.084 12.3229H1.91732C1.55488 12.3229 1.26107 12.0291 1.26107 11.6667V6.34375Z" fill="#333D4C"/>
</svg>
