<svg width="15" height="14" viewBox="0 0 15 14" fill="none" xmlns="http://www.w3.org/2000/svg">
<g clip-path="url(#clip0_5535_4351)">
<path d="M7.50232 3.40552C5.51724 3.40552 3.91016 5.01435 3.91016 6.99768C3.91016 8.98277 5.51899 10.5899 7.50232 10.5899C9.48741 10.5899 11.0945 8.98102 11.0945 6.99768C11.0945 5.0126 9.48566 3.40552 7.50232 3.40552ZM7.50232 9.32927C6.21374 9.32927 5.17074 8.28568 5.17074 6.99768C5.17074 5.70968 6.21432 4.6661 7.50232 4.6661C8.79032 4.6661 9.83391 5.70968 9.83391 6.99768C9.83449 8.28568 8.79091 9.32927 7.50232 9.32927Z" fill="#EEF1F6"/>
<path d="M10.3865 0.0442197C9.09847 -0.0158636 5.90822 -0.012947 4.61905 0.0442197C3.48622 0.097303 2.48697 0.370886 1.68138 1.17647C0.335049 2.5228 0.507133 4.33697 0.507133 6.99755C0.507133 9.72055 0.355466 11.4927 1.68138 12.8186C3.03297 14.1696 4.87338 13.9929 7.50247 13.9929C10.1998 13.9929 11.1308 13.9946 12.0845 13.6254C13.3813 13.122 14.3601 11.9629 14.4558 9.88097C14.5165 8.59239 14.513 5.40272 14.4558 4.11355C14.3403 1.65597 13.0214 0.165553 10.3865 0.0442197ZM12.4252 11.9279C11.5426 12.8105 10.3182 12.7317 7.48555 12.7317C4.56888 12.7317 3.3993 12.7749 2.54588 11.9191C1.56297 10.9409 1.74088 9.36997 1.74088 6.98822C1.74088 3.7653 1.41013 1.44422 4.64472 1.27855C5.38788 1.2523 5.60663 1.24355 7.47738 1.24355L7.50363 1.26105C10.6122 1.26105 13.0511 0.935553 13.1975 4.16955C13.2308 4.90747 13.2384 5.12914 13.2384 6.99697C13.2378 9.8798 13.2926 11.0564 12.4252 11.9279Z" fill="#EEF1F6"/>
<path d="M11.2359 4.10315C11.6995 4.10315 12.0753 3.72733 12.0753 3.26373C12.0753 2.80014 11.6995 2.42432 11.2359 2.42432C10.7723 2.42432 10.3965 2.80014 10.3965 3.26373C10.3965 3.72733 10.7723 4.10315 11.2359 4.10315Z" fill="#EEF1F6"/>
</g>
<defs>
<clipPath id="clip0_5535_4351">
<rect width="14" height="14" fill="white" transform="translate(0.5)"/>
</clipPath>
</defs>
</svg>
