<svg width="88" height="96" viewBox="0 0 88 96" fill="none" xmlns="http://www.w3.org/2000/svg">
<rect width="88" height="88" rx="44" fill="#FEECEC"/>
<g clip-path="url(#clip0_5535_100)">
<path d="M44.2173 54.3251H38.8927C38.375 54.3251 37.9553 54.7447 37.9553 55.2624V58.4863H34.7264C34.2087 58.4863 33.7891 58.9059 33.7891 59.4236V64.7419C33.7891 65.2596 34.2087 65.6793 34.7264 65.6793H37.9553V68.9033C37.9553 69.421 38.375 69.8406 38.8927 69.8406H44.2174C44.735 69.8406 45.1547 69.421 45.1547 68.9033V65.6793H48.3809C48.8985 65.6793 49.3183 65.2596 49.3183 64.7419V59.4236C49.3183 58.9059 48.8985 58.4863 48.3809 58.4863H45.1547V55.2624C45.1546 54.7447 44.735 54.3251 44.2173 54.3251ZM47.4435 60.361V63.8046H44.2173C43.6997 63.8046 43.2799 64.2242 43.2799 64.7419V67.9659H39.8301V64.7419C39.8301 64.2242 39.4104 63.8046 38.8927 63.8046H35.6638V60.361H38.8927C39.4104 60.361 39.8301 59.9414 39.8301 59.4236V56.1998H43.28V59.4236C43.28 59.9414 43.6998 60.361 44.2174 60.361H47.4435Z" fill="#F03D3D"/>
<path d="M60.2982 67.5723L60.9459 66.9484C60.9541 66.9406 60.9621 66.9327 60.9699 66.9246C66.4825 61.2198 66.4825 51.9375 60.9698 46.2328C58.6519 43.8343 55.4687 42.5908 52.0078 42.7328C48.6979 42.8679 45.4986 44.2281 42.9994 46.5624L42.8219 46.7283C42.3038 47.2126 41.769 47.7127 41.5518 47.807C41.3346 47.7128 40.7999 47.2127 40.2817 46.7283L40.1045 46.5627C37.6051 44.2281 34.4058 42.8679 31.0961 42.7328C27.6345 42.5907 24.4528 43.8344 22.1366 46.2326C16.6211 51.9374 16.6211 61.2199 22.1366 66.9248C22.1443 66.9327 22.1519 66.9404 22.1599 66.948L26.7619 71.3853C26.9437 71.5607 27.1782 71.6479 27.4124 71.6479C27.658 71.6479 27.9033 71.5519 28.0873 71.3611C28.4466 70.9884 28.4358 70.3951 28.0631 70.0357L23.4731 65.6101C18.6638 60.6228 18.6673 52.518 23.4847 47.5354C27.3851 43.4971 34.2666 43.6753 38.8251 47.933L39.0013 48.0977C40.0994 49.1243 40.7042 49.6898 41.5518 49.6898C42.3994 49.6898 43.0042 49.1243 44.1023 48.0977L44.2788 47.9329C48.8366 43.6757 55.7195 43.4976 59.6217 47.5356C64.4364 52.518 64.4401 60.6227 59.6332 65.6101L58.2042 66.9865C57.7426 66.915 57.2698 66.8778 56.7886 66.8778C51.7109 66.8778 47.58 71.0044 47.58 76.0767C47.58 76.4447 47.6024 76.8075 47.6446 77.1643L41.553 83.0387L34.1184 75.874C33.7458 75.5149 33.1523 75.5258 32.7929 75.8986C32.4336 76.2714 32.4447 76.8647 32.8175 77.224L40.9028 85.0158C41.0843 85.1907 41.3188 85.2782 41.5532 85.2782C41.7877 85.2782 42.0224 85.1906 42.2038 85.0155L48.1547 79.2768C49.4584 82.7776 52.8366 85.2782 56.7885 85.2782C61.8677 85.2782 65.9999 81.1504 65.9999 76.0767C65.9999 72.2449 63.6414 68.9533 60.2982 67.5723ZM56.7885 83.4034C52.7445 83.4034 49.4546 80.1166 49.4546 76.0766C49.4546 72.0381 52.7446 68.7524 56.7885 68.7524C60.8339 68.7524 64.1252 72.0381 64.1252 76.0766C64.1252 80.1166 60.8339 83.4034 56.7885 83.4034Z" fill="#F03D3D"/>
<path d="M56.7889 71.2009C56.2713 71.2009 55.8516 71.6206 55.8516 72.1383V76.0792C55.8516 76.5969 56.2713 77.0166 56.7889 77.0166C57.3065 77.0166 57.7263 76.5969 57.7263 76.0792V72.1383C57.7263 71.6206 57.3065 71.2009 56.7889 71.2009Z" fill="#F03D3D"/>
<path d="M56.7889 79.0723C56.2713 79.0723 55.8516 79.4919 55.8516 80.0096V80.0149C55.8516 80.5326 56.2713 80.9496 56.7889 80.9496C57.3065 80.9496 57.7263 80.5273 57.7263 80.0096C57.7263 79.4919 57.3065 79.0723 56.7889 79.0723Z" fill="#F03D3D"/>
<path d="M29.7784 72.9669C29.4124 73.333 29.4124 73.9265 29.7784 74.2926L29.7811 74.2952C29.9638 74.4779 30.2028 74.5691 30.4419 74.5691C30.6819 74.5691 30.922 74.4773 31.1054 74.2939C31.4714 73.9279 31.4701 73.333 31.104 72.9669C30.738 72.6009 30.1445 72.6009 29.7784 72.9669Z" fill="#F03D3D"/>
</g>
<defs>
<clipPath id="clip0_5535_100">
<rect width="48" height="48" fill="white" transform="translate(18 40)"/>
</clipPath>
</defs>
</svg>
