<svg width="88" height="96" viewBox="0 0 88 96" fill="none" xmlns="http://www.w3.org/2000/svg">
<rect width="88" height="88" rx="44" fill="#292428"/>
<g clip-path="url(#clip0_5535_3885)">
<path d="M51.2188 66.2319C51.7365 66.2319 52.1562 65.8122 52.1562 65.2944C52.1562 64.7767 51.7365 64.3569 51.2188 64.3569C50.701 64.3569 50.2812 64.7767 50.2812 65.2944C50.2812 65.8122 50.701 66.2319 51.2188 66.2319Z" fill="#FC9231"/>
<path d="M60.5439 65.2944C60.5439 64.7756 60.1233 64.355 59.6045 64.355H55.4531C54.9342 64.355 54.5137 64.7756 54.5137 65.2944C54.5137 65.8132 54.9342 66.2337 55.4531 66.2337H58.639C58.1503 74.9874 50.8742 81.9591 42.0005 81.9591C33.1268 81.9591 25.8507 74.9874 25.3619 66.2337H46.986C47.5048 66.2337 47.9254 65.8131 47.9254 65.2943C47.9254 64.7755 47.5048 64.3549 46.986 64.3549H43.6433C43.7216 63.8095 43.9257 63.4782 44.1869 63.0572C44.5705 62.4389 45.0478 61.6693 45.0478 60.2411C45.0478 58.8131 44.5705 58.0435 44.1869 57.4251C43.8509 56.8835 43.6082 56.4922 43.6082 55.5994C43.6082 54.7065 43.851 54.315 44.1869 53.7734C44.5705 53.1551 45.0478 52.3854 45.0478 50.9572C45.0478 49.529 44.5706 48.7593 44.1869 48.1409C44.0385 47.9017 43.9087 47.6914 43.8095 47.4546C43.8095 47.4546 58.6886 49.8098 58.7374 49.8098C59.1913 49.8098 59.5906 49.48 59.664 49.0174C59.7453 48.5051 59.3957 48.0238 58.8834 47.9426L43.7324 45.5405L43.9636 43.9719L58.9513 41.8697C59.4651 41.7976 59.8231 41.3227 59.751 40.8089C59.6789 40.2952 59.2042 39.9374 58.6903 40.0091L32.0769 43.742C31.6066 43.808 31.2509 44.2337 31.2687 44.708C31.2756 46.1736 31.6956 46.9723 32.0671 47.677C32.3924 48.294 32.6494 48.7814 32.6494 49.8056C32.6494 50.8121 32.3866 51.271 32.0538 51.8517C31.6778 52.5082 31.2098 53.3252 31.2098 54.8318C31.2098 56.3381 31.6778 57.1551 32.0539 57.8115C32.3866 58.3923 32.6494 58.851 32.6494 59.8573C32.6494 60.8637 32.3866 61.3225 32.0539 61.9032C31.7243 62.4785 31.3242 63.1772 31.2303 64.355H24.3964C23.8776 64.355 23.457 64.7756 23.457 65.2944C23.457 72.3468 27.4147 78.4917 33.2254 81.6263V87.0607C33.2254 87.5795 33.646 88.0001 34.1648 88.0001H49.836C50.3548 88.0001 50.7754 87.5795 50.7754 87.0607V81.6263C56.5862 78.4916 60.5439 72.3467 60.5439 65.2944ZM41.7296 46.3151C41.7296 47.7433 42.2068 48.5129 42.5905 49.1314C42.9265 49.6731 43.1692 50.0645 43.1692 50.9574C43.1692 51.8502 42.9264 52.2417 42.5905 52.7833C42.2069 53.4017 41.7296 54.1714 41.7296 55.5996C41.7296 57.0277 42.2069 57.7972 42.5905 58.4156C42.9265 58.9571 43.1692 59.3486 43.1692 60.2412C43.1692 61.134 42.9264 61.5253 42.5905 62.067C42.2572 62.6043 41.8535 63.2564 41.7533 64.355H38.2632C38.3423 63.7616 38.5573 63.4019 38.8157 62.9721C39.1962 62.3391 39.6699 61.5512 39.6699 60.0932C39.6699 58.6352 39.1963 57.8474 38.8157 57.2144C38.4885 56.6702 38.2302 56.2404 38.2302 55.3035C38.2302 54.3665 38.4885 53.9366 38.8158 53.3922C39.1963 52.7591 39.6699 51.9713 39.6699 50.5131C39.6699 49.0549 39.1963 48.2671 38.8158 47.634C38.4886 47.0897 38.2302 46.6598 38.2302 45.7227V44.7761L42.0247 44.2438C42.0246 44.2438 41.7296 46.2692 41.7296 46.3151ZM33.684 56.8776C33.3513 56.2968 33.0885 55.8381 33.0885 54.8318C33.0885 53.8252 33.3513 53.3664 33.6841 52.7856C34.0602 52.1291 34.5282 51.3121 34.5282 49.8056C34.5282 48.3165 34.1037 47.5112 33.729 46.8008C33.5032 46.3723 33.3104 46.0061 33.2136 45.4796L36.3514 45.0396V45.7227C36.3514 47.1809 36.8249 47.9688 37.2055 48.6019C37.5327 49.1462 37.7911 49.5761 37.7911 50.5131C37.7911 51.4501 37.5327 51.8801 37.2055 52.4244C36.8249 53.0575 36.3514 53.8453 36.3514 55.3035C36.3514 56.7615 36.8249 57.5493 37.2056 58.1823C37.5328 58.7265 37.7911 59.1564 37.7911 60.0932C37.7911 61.0301 37.5328 61.46 37.2056 62.0042C36.8738 62.5561 36.4715 63.2261 36.3738 64.3551H33.117C33.1933 63.6947 33.4159 63.3054 33.6841 62.8373C34.0603 62.1808 34.5282 61.3639 34.5282 59.8574C34.5282 58.351 34.0601 57.534 33.684 56.8776ZM48.8968 86.1214H35.1042V82.5071C37.2371 83.3647 39.5644 83.8377 42.0005 83.8377C44.4366 83.8377 46.7639 83.3647 48.8968 82.5071V86.1214Z" fill="#FC9231"/>
<path d="M33.9159 68.7546C33.3971 68.7546 32.9766 69.1752 32.9766 69.694C32.9766 70.2128 33.3971 70.6334 33.9159 70.6334H50.0843C50.6032 70.6334 51.0237 70.2128 51.0237 69.694C51.0237 69.1752 50.6032 68.7546 50.0843 68.7546H33.9159Z" fill="#FC9231"/>
</g>
<defs>
<clipPath id="clip0_5535_3885">
<rect width="48" height="48" fill="white" transform="translate(18 40)"/>
</clipPath>
</defs>
</svg>
