<svg width="88" height="96" viewBox="0 0 88 96" fill="none" xmlns="http://www.w3.org/2000/svg">
<rect width="88" height="88" rx="44" fill="#152230"/>
<path d="M59.8131 85.1583L58.8755 55.1583C58.8269 53.5976 57.5917 52.3751 56.0636 52.3751H51.8448H51.8447V49.8437C51.8447 44.4159 47.4288 40 42.0009 40C36.573 40 32.1572 44.4159 32.1572 49.8437V52.3751H27.9384C26.4104 52.3751 25.1752 53.5977 25.1264 55.1583L24.1888 85.1583C24.1659 85.8944 24.4408 86.5965 24.963 87.1352C25.4958 87.6847 26.2385 88 27.0009 88H57.001C57.7633 88 58.5061 87.6847 59.0388 87.135C59.5611 86.5962 59.8361 85.8942 59.8131 85.1583ZM34.0322 49.8437C34.0322 45.4498 37.607 41.875 42.0009 41.875C46.3949 41.875 49.9697 45.4498 49.9697 49.8437V57.0627C49.9697 57.5796 49.5491 58.0002 49.0322 58.0002C48.5152 58.0002 48.0947 57.5796 48.0947 57.0627V49.8437C48.0947 46.4836 45.3611 43.75 42.001 43.75C38.6409 43.75 35.9072 46.4836 35.9072 49.8437V57.0627C35.9072 57.5796 35.4866 58.0002 34.9697 58.0002C34.4527 58.0002 34.0322 57.5796 34.0322 57.0627V49.8437ZM46.2197 52.3751H37.7823H37.7822V49.8437C37.7822 47.5175 39.6748 45.625 42.001 45.625C44.3272 45.625 46.2197 47.5175 46.2197 49.8437V52.3751ZM57.6925 85.8301C57.5108 86.0175 57.2588 86.125 57.001 86.125H27.001C26.743 86.125 26.491 86.0176 26.3095 85.8302C26.1435 85.659 26.056 85.4412 26.063 85.2168L26.0932 84.2499H31.0318C31.5495 84.2499 31.9693 83.8302 31.9693 83.3124C31.9693 82.7946 31.5495 82.3749 31.0318 82.3749H26.1518L27.0006 55.2169C27.0175 54.6748 27.4295 54.2501 27.9385 54.2501H32.1573V57.0627C32.1573 58.6135 33.419 59.8751 34.9698 59.8751C36.5206 59.8751 37.7823 58.6135 37.7823 57.0627V54.2501H46.2197V57.0627C46.2197 58.6135 47.4813 59.8751 49.0322 59.8751C50.583 59.8751 51.8447 58.6135 51.8447 57.0627V54.2501H51.8447H56.0635C56.5726 54.2501 56.9844 54.6747 57.0014 55.2169L57.939 85.2168C57.9461 85.4411 57.8585 85.6588 57.6925 85.8301Z" fill="#3D7A81"/>
<path d="M42.5902 65.6783C42.204 66.0631 41.706 65.9696 41.4137 65.6783C39.1877 63.4594 35.5658 63.4594 33.3398 65.6783C31.7825 67.2307 31.2826 69.2595 31.8941 71.5455C33.1876 76.3804 39.1491 81.2543 41.76 81.9516C41.8392 81.9728 41.9206 81.9834 42.0019 81.9834C42.0831 81.9834 42.1645 81.9728 42.2437 81.9516C44.8547 81.2543 50.8161 76.3804 52.1097 71.5455C52.7212 69.2595 52.2214 67.2307 50.664 65.6783C48.4384 63.4594 44.8163 63.4592 42.5902 65.6783ZM50.2985 71.0609C49.2105 75.128 44.1356 79.2829 42.002 80.0628C39.8683 79.2829 34.7935 75.128 33.7055 71.0609C33.265 69.4143 33.5784 68.088 34.6636 67.0062C35.4116 66.2605 36.3942 65.8877 37.3768 65.8877C38.3594 65.8877 39.342 66.2605 40.09 67.0062C41.1621 68.0748 42.8419 68.0749 43.9139 67.0062C45.41 65.5149 47.8443 65.5149 49.3404 67.0062C50.4256 68.0879 50.739 69.4143 50.2985 71.0609Z" fill="#3D7A81"/>
<path d="M35.25 82.3749C34.7323 82.3749 34.3125 82.7946 34.3125 83.3124C34.3125 83.8302 34.7323 84.2499 35.25 84.2499H35.2507C35.7684 84.2499 36.1879 83.8302 36.1879 83.3124C36.1879 82.7946 35.7677 82.3749 35.25 82.3749Z" fill="#3D7A81"/>
</svg>
