<svg width="88" height="96" viewBox="0 0 88 96" fill="none" xmlns="http://www.w3.org/2000/svg">
<rect width="88" height="88" rx="44" fill="#FBEEEE"/>
<g clip-path="url(#clip0_5535_1596)">
<path d="M65.7253 58.2746L64.4999 57.0493V47.1635C64.4999 43.2139 61.2867 40.0007 57.3371 40.0007C55.7121 40.0007 54.2125 40.5455 53.0093 41.4609C47.7061 38.8572 41.1041 39.7573 36.6994 44.1618C31.9824 48.8789 31.2854 56.116 34.6064 61.579L29.2353 66.9501H26.9663C26.4486 66.9501 26.0288 67.3699 26.0288 67.8876V69.6076H24.3088C23.7911 69.6076 23.3713 70.0273 23.3713 70.5451V72.265H21.6515C21.1338 72.265 20.714 72.6847 20.714 73.2025V74.9224H18.9941C18.7455 74.9224 18.5071 75.0213 18.3312 75.197L18.2746 75.2537C18.0988 75.4293 18 75.6678 18 75.9164V81.9994C18 82.5172 18.4198 82.9369 18.9375 82.9369H25.1339C25.3825 82.9369 25.6209 82.8381 25.7968 82.6623L36.1382 72.3209C36.5043 71.9548 36.5043 71.3612 36.1382 70.995C35.7721 70.6289 35.1786 70.6289 34.8123 70.995L24.7455 81.062H19.875V76.7972H21.6516C22.1692 76.7972 22.5891 76.3774 22.5891 75.8597V74.1397H24.309C24.8267 74.1397 25.2465 73.72 25.2465 73.2022V71.4823H26.9665C27.4842 71.4823 27.904 71.0626 27.904 70.5448V68.8249H29.6239C29.8726 68.8249 30.111 68.7261 30.2869 68.5503L35.7023 63.1349C36.0122 63.5172 36.3445 63.8872 36.7 64.2427C39.2365 66.7792 42.5639 68.2371 46.1259 68.3879V84.0616C46.1259 86.2327 47.8922 87.999 50.0633 87.999H62.063C64.234 87.999 66.0004 86.2327 66.0004 84.0616V58.9374C65.9999 58.6889 65.9011 58.4505 65.7253 58.2746ZM57.3371 41.8756C60.2528 41.8756 62.6249 44.2477 62.6249 47.1634V55.1742L60.9391 53.4884C60.9309 53.4802 60.9219 53.4731 60.9135 53.4653C60.739 50.0786 59.3618 46.7428 56.7807 44.1615C56.1642 43.5451 55.5045 42.9977 54.8116 42.5186C55.5626 42.1089 56.423 41.8756 57.3371 41.8756ZM52.0491 49.8264V47.7568C52.2932 47.8666 52.5228 48.0192 52.723 48.2194C53.1522 48.6487 53.3888 49.2193 53.3888 49.8264C53.3888 50.4334 53.1523 51.0041 52.723 51.4334C51.837 52.3196 50.3952 52.3196 49.5091 51.4334C48.623 50.5473 48.623 49.1055 49.5091 48.2195C49.7069 48.0217 49.9333 47.8706 50.1742 47.7611V49.8265C50.1742 50.3442 50.594 50.764 51.1117 50.764C51.6294 50.764 52.0491 50.3441 52.0491 49.8264ZM46.7399 66.5211C43.5843 66.5208 40.4276 65.3194 38.0252 62.917C33.22 58.1118 33.22 50.2929 38.0252 45.4875C40.3531 43.1597 43.4481 41.8777 46.7401 41.8777C48.4408 41.8777 50.0885 42.2207 51.6055 42.8724C50.9757 43.7114 50.5261 44.6929 50.3133 45.7588C49.5323 45.9117 48.7871 46.2898 48.1833 46.8935C46.5662 48.5107 46.5662 51.1419 48.1833 52.7591C48.992 53.5676 50.0539 53.9719 51.1161 53.9719C52.178 53.9719 53.2403 53.5676 54.0488 52.7591C54.8321 51.9757 55.2637 50.934 55.2637 49.8263C55.2637 48.7184 54.8321 47.6769 54.0488 46.8935C53.523 46.3678 52.8899 46.0141 52.2195 45.8303C52.421 45.0574 52.7938 44.3534 53.2942 43.7601C54.0677 44.2477 54.7924 44.8252 55.4547 45.4876C57.7826 47.8154 59.0646 50.9104 59.0646 54.2024C59.0646 57.4944 57.7826 60.5894 55.4547 62.9172C53.0518 65.3201 49.8964 66.5213 46.7399 66.5211ZM64.1249 84.0619C64.1249 85.1992 63.1997 86.1244 62.0625 86.1244H50.0628C48.9255 86.1244 48.0003 85.1992 48.0003 84.0619V68.3461C51.3176 68.0562 54.398 66.6256 56.7807 64.2429C59.0873 61.9364 60.4319 59.0272 60.8167 56.0176L64.1249 59.3258V84.0619Z" fill="#D85151"/>
<path d="M41.9652 49.4292C42.3315 49.0631 42.3315 48.4695 41.9653 48.1034C41.5991 47.7373 41.0057 47.7373 40.6394 48.1034C37.2764 51.4665 37.2764 56.9386 40.6394 60.3016C40.8225 60.4847 41.0624 60.5762 41.3023 60.5762C41.5422 60.5762 41.7821 60.4846 41.9652 60.3016C42.3313 59.9355 42.3313 59.3419 41.9652 58.9758C39.3333 56.3438 39.3333 52.0612 41.9652 49.4292Z" fill="#D85151"/>
<path d="M44.9471 60.7199C44.9444 60.7191 44.9337 60.7161 44.931 60.7154C44.4327 60.5777 43.9181 60.8708 43.7802 61.3695C43.6421 61.8678 43.9356 62.3843 44.4337 62.5233C44.5193 62.5475 44.6053 62.5591 44.6901 62.5591C45.0981 62.5591 45.4734 62.2907 45.591 61.8789C45.7333 61.381 45.445 60.8621 44.9471 60.7199Z" fill="#D85151"/>
<path d="M60.0467 81.062H52.0781C51.5604 81.062 51.1406 81.4817 51.1406 81.9995C51.1406 82.5173 51.5604 82.937 52.0781 82.937H60.0467C60.5644 82.937 60.9842 82.5173 60.9842 81.9995C60.9842 81.4817 60.5644 81.062 60.0467 81.062Z" fill="#D85151"/>
<path d="M38.5416 68.5908C38.3673 68.4165 38.1255 68.3162 37.8789 68.3162C37.6323 68.3162 37.3905 68.4165 37.2161 68.5908C37.0417 68.7652 36.9414 69.0071 36.9414 69.2537C36.9414 69.5002 37.0416 69.7421 37.2161 69.9165C37.3906 70.0908 37.6323 70.1912 37.8789 70.1912C38.1264 70.1912 38.3673 70.0908 38.5416 69.9165C38.7169 69.7421 38.8164 69.5002 38.8164 69.2537C38.8164 69.0071 38.7169 68.7652 38.5416 68.5908Z" fill="#D85151"/>
</g>
<defs>
<clipPath id="clip0_5535_1596">
<rect width="48" height="48" fill="white" transform="translate(18 40)"/>
</clipPath>
</defs>
</svg>
