<svg width="88" height="96" viewBox="0 0 88 96" fill="none" xmlns="http://www.w3.org/2000/svg">
<rect width="88" height="88" rx="44" fill="#EBF7F0"/>
<g clip-path="url(#clip0_5535_4464)">
<path d="M55.2361 50.4935C54.2143 50.2151 53.1735 50.1056 52.1302 50.165C51.8453 44.5095 47.3867 40 41.9469 40C37.2678 40 33.3149 43.3366 32.1196 47.8692C31.0565 47.8022 29.996 47.9102 28.9563 48.1936C28.6432 48.279 28.3275 48.3826 28.0188 48.5009C27.5354 48.6866 27.2937 49.2286 27.4794 49.712C27.6222 50.0851 27.9778 50.314 28.3546 50.314C28.4663 50.314 28.5798 50.2939 28.6904 50.2514C28.9409 50.1554 29.1962 50.0716 29.4488 50.0027C30.2205 49.7925 31.0063 49.7021 31.7944 49.7303C31.7648 50.0628 31.749 50.3997 31.749 50.7403C31.749 55.6761 34.8629 61.46 39.1374 63.3105L38.7027 65.5818C37.6809 67.6468 36.2146 69.0293 34.5637 69.4794C34.0693 69.6141 33.579 69.6628 33.1025 69.6497C33.0963 69.6493 33.0897 69.6493 33.0835 69.6493C31.7589 69.6083 30.5445 69.0875 29.6656 68.5803C26.8806 66.9726 24.4665 63.8324 23.6587 60.7661C23.1529 58.846 23.2584 56.8721 23.9633 55.0576C24.1508 54.5749 23.9117 54.0314 23.429 53.8439C22.9464 53.6564 22.4033 53.8959 22.2158 54.3786C21.3665 56.5645 21.2387 58.9387 21.8459 61.2436C22.7724 64.7615 25.5384 68.3628 28.7281 70.2041C29.8843 70.8713 31.0474 71.2885 32.1819 71.4503L32.4481 75.3344C32.4672 75.6145 32.6111 75.8716 32.84 76.0342C33.0004 76.1485 33.1908 76.2078 33.3834 76.2078C33.4658 76.2078 33.5486 76.1968 33.6299 76.1748L35.4317 75.6837C36.1996 77.3156 36.3834 78.9178 36.5603 80.4723C36.7511 82.1445 36.9309 83.7239 37.7835 85.2254C37.956 85.5297 38.2731 85.7004 38.5994 85.7004C38.7565 85.7004 38.9154 85.6608 39.0616 85.5777C39.5116 85.3221 39.6695 84.7501 39.4138 84.2996C38.7506 83.131 38.599 81.8006 38.4232 80.2599C38.2467 78.7094 38.0497 76.9856 37.2645 75.1842L38.695 74.7942C38.9634 74.7213 39.1857 74.5324 39.3014 74.2793C39.4168 74.0263 39.4142 73.7351 39.2937 73.4843L37.6088 69.9723C38.2072 69.498 38.762 68.9213 39.2622 68.2522C39.2831 68.2537 39.304 68.2555 39.3249 68.2555H41.1955C41.5243 70.0382 41.294 71.6364 41.0688 73.1873C40.8274 74.8524 40.5993 76.4253 41.0406 78.0989C41.1512 78.5197 41.5309 78.7976 41.9462 78.7976C42.0253 78.7976 42.1059 78.7878 42.1857 78.7665C42.6863 78.6347 42.9855 78.122 42.8537 77.621C42.5098 76.3166 42.7021 74.9912 42.9247 73.4564C43.1481 71.9139 43.3964 70.1993 43.0979 68.2555H43.8417C44.3361 69.8818 45.3073 71.2936 46.5755 72.2893L44.8986 75.7841C44.7781 76.0349 44.7756 76.3261 44.8913 76.5791C45.0066 76.8322 45.2289 77.0208 45.4974 77.094L46.9278 77.484C46.1426 79.2854 45.9456 81.0092 45.7691 82.5597C45.5933 84.1004 45.4417 85.4308 44.7785 86.5994C44.5229 87.0499 44.6807 87.6219 45.1308 87.8775C45.2769 87.9606 45.4358 87.9998 45.5929 87.9998C45.9192 87.9998 46.2364 87.8292 46.4089 87.5252C47.2614 86.0237 47.4416 84.4443 47.632 82.7721C47.8093 81.2172 47.9927 79.6154 48.7607 77.9836L50.5625 78.4746C50.6438 78.4966 50.7265 78.5076 50.8089 78.5076C51.0019 78.5076 51.192 78.4479 51.3524 78.334C51.5813 78.1714 51.7252 77.9143 51.7446 77.6342L52.0105 73.7512C52.6198 73.6637 53.2398 73.5018 53.8675 73.2649C57.675 71.8286 61.2412 67.7399 62.3468 63.5434C63.8527 57.8265 60.663 51.9722 55.2361 50.4935ZM37.1166 73.2814L34.2404 74.0651L34.0631 71.4796C34.3993 71.4401 34.7311 71.3771 35.057 71.2885C35.3778 71.2009 35.692 71.0881 35.9993 70.9523L37.1166 73.2814ZM40.459 66.3808L40.9461 63.8353C41.2753 63.8851 41.6089 63.9115 41.9469 63.9115C42.2817 63.9115 42.6153 63.8855 42.9478 63.8357L43.4349 66.3808H40.459ZM47.0754 75.5808L48.1912 73.2554C48.497 73.388 48.812 73.4996 49.1353 73.5879C49.462 73.6769 49.7934 73.7402 50.1289 73.7802L49.9516 76.3649L47.0754 75.5808ZM60.5333 63.0655C59.5859 66.6614 56.4358 70.2924 53.2054 71.5107C52.4924 71.7799 51.7999 71.926 51.1341 71.9495C51.1165 71.9491 51.099 71.9491 51.0814 71.9502C50.5811 71.9627 50.0955 71.9063 49.6282 71.7788C47.5782 71.2203 45.9529 69.3959 45.4875 67.1308L44.7569 63.3127C44.9979 63.2087 45.2374 63.0923 45.475 62.9615C45.9288 62.7121 46.0943 62.1423 45.8445 61.6886C45.5951 61.2348 45.025 61.0693 44.5712 61.3187C44.1907 61.5282 43.8073 61.6919 43.422 61.8098C43.4195 61.8105 43.4169 61.8112 43.414 61.8123C42.9258 61.961 42.4351 62.0365 41.9469 62.0365C39.9221 62.0365 37.815 60.6921 36.1655 58.348C34.5744 56.0862 33.624 53.2422 33.624 50.7406C33.624 45.8521 37.3576 41.875 41.9469 41.875C46.5363 41.875 50.2698 45.8521 50.2698 50.7406C50.2698 52.4076 49.8322 54.2922 49.0372 56.0467C48.8233 56.5184 49.0324 57.0739 49.5041 57.2874C49.9758 57.5013 50.5313 57.2922 50.7448 56.8205C51.4483 55.2685 51.9043 53.6154 52.0716 52.0488C52.9688 51.9788 53.8646 52.063 54.7431 52.3025C59.1809 53.5118 61.7781 58.3403 60.5333 63.0655Z" fill="#33B36B"/>
<path d="M25.1603 52.4223C25.3855 52.4223 25.6111 52.3418 25.7909 52.1784L25.7913 52.1781C26.1743 51.8298 26.2022 51.2373 25.8539 50.8538C25.506 50.4711 24.9127 50.443 24.5297 50.7912C24.1466 51.1395 24.118 51.7324 24.4663 52.1154C24.6512 52.3191 24.9054 52.4223 25.1603 52.4223Z" fill="#33B36B"/>
<path d="M48.5069 58.9401C48.1092 58.6087 47.5182 58.6622 47.1864 59.0603L47.186 59.0606C46.8546 59.4583 46.9084 60.0494 47.3061 60.3808C47.4815 60.5266 47.6943 60.598 47.9056 60.598C48.1744 60.598 48.4414 60.483 48.6267 60.2603C48.9585 59.8626 48.9046 59.2716 48.5069 58.9401Z" fill="#33B36B"/>
<path d="M26.3906 75.5193H26.3903C25.8724 75.5193 25.4531 75.939 25.4531 76.4568C25.4531 76.9742 25.8732 77.3943 26.3906 77.3943C26.9085 77.3943 27.3281 76.9742 27.3281 76.4568C27.3281 75.939 26.9085 75.5193 26.3906 75.5193Z" fill="#33B36B"/>
<path d="M32.8597 81.4255H32.859C32.3412 81.4255 31.9219 81.8452 31.9219 82.363C31.9219 82.8805 32.3419 83.3005 32.8597 83.3005C33.3776 83.3005 33.7972 82.8805 33.7972 82.363C33.7972 81.8452 33.3776 81.4255 32.8597 81.4255Z" fill="#33B36B"/>
<path d="M56.4847 77.3002H56.484C55.9666 77.3002 55.5469 77.7202 55.5469 78.2377C55.5469 78.7555 55.9673 79.1752 56.4847 79.1752C57.0026 79.1752 57.4222 78.7555 57.4222 78.2377C57.4222 77.7202 57.0026 77.3002 56.4847 77.3002Z" fill="#1D2735"/>
<path d="M51.891 82.2693H51.8903C51.3728 82.2693 50.9531 82.689 50.9531 83.2068C50.9531 83.7242 51.3735 84.1443 51.891 84.1443C52.4088 84.1443 52.8285 83.7242 52.8285 83.2068C52.8285 82.689 52.4088 82.2693 51.891 82.2693Z" fill="#1D2735"/>
<path d="M56.2972 46.6442C56.8151 46.6442 57.2347 46.2241 57.2347 45.7067C57.2347 45.1888 56.8151 44.7692 56.2972 44.7692H56.2965C55.7791 44.7692 55.3594 45.1888 55.3594 45.7067C55.3594 46.2241 55.7798 46.6442 56.2972 46.6442Z" fill="#1D2735"/>
</g>
<defs>
<clipPath id="clip0_5535_4464">
<rect width="48" height="48" fill="white" transform="translate(18 40)"/>
</clipPath>
</defs>
</svg>
