<svg width="18" height="18" viewBox="0 0 18 18" fill="none" xmlns="http://www.w3.org/2000/svg">
<path fill-rule="evenodd" clip-rule="evenodd" d="M3.00006 3.65625C2.53749 3.65625 2.15631 4.03744 2.15631 4.5V13.5C2.15631 13.9626 2.53749 14.3438 3.00006 14.3438H15.0001C15.4626 14.3438 15.8438 13.9626 15.8438 13.5V4.5C15.8438 4.03744 15.4626 3.65625 15.0001 3.65625H3.00006ZM0.843806 4.5C0.843806 3.31256 1.81262 2.34375 3.00006 2.34375H15.0001C16.1875 2.34375 17.1563 3.31256 17.1563 4.5V13.5C17.1563 14.6874 16.1875 15.6562 15.0001 15.6562H3.00006C1.81262 15.6562 0.843806 14.6874 0.843806 13.5V4.5Z" fill="#CAD0D9"/>
<path fill-rule="evenodd" clip-rule="evenodd" d="M0.962435 4.12367C1.17028 3.82675 1.57947 3.75454 1.87639 3.96238L9.00006 8.94895L16.1237 3.96238C16.4206 3.75454 16.8298 3.82675 17.0377 4.12367C17.2455 4.42058 17.1733 4.82978 16.8764 5.03762L9.37639 10.2876C9.15043 10.4458 8.84968 10.4458 8.62372 10.2876L1.12372 5.03762C0.826802 4.82978 0.754592 4.42058 0.962435 4.12367Z" fill="#CAD0D9"/>
</svg>
