<svg width="12" height="14" viewBox="0 0 12 14" fill="none" xmlns="http://www.w3.org/2000/svg">
<path fill-rule="evenodd" clip-rule="evenodd" d="M6.00065 1.09374C4.74364 1.09374 3.5381 1.59309 2.64926 2.48193C1.76042 3.37078 1.26107 4.57631 1.26107 5.83332C1.26107 7.66983 2.454 9.44122 3.74619 10.8052C4.38185 11.4762 5.01924 12.0252 5.49829 12.4067C5.69788 12.5656 5.86927 12.6949 6.00065 12.7912C6.13203 12.6949 6.30342 12.5656 6.50301 12.4067C6.98206 12.0252 7.61945 11.4762 8.25511 10.8052C9.54731 9.44122 10.7402 7.66983 10.7402 5.83332C10.7402 4.57631 10.2409 3.37078 9.35204 2.48193C8.4632 1.59309 7.25767 1.09374 6.00065 1.09374ZM6.00065 13.4167C5.71752 13.8413 5.71724 13.8412 5.71724 13.8412L5.71567 13.8401L5.71191 13.8376L5.69881 13.8287C5.68763 13.8211 5.67161 13.8102 5.65108 13.796C5.61002 13.7675 5.55087 13.726 5.47622 13.6721C5.32697 13.5643 5.11545 13.4068 4.86239 13.2053C4.35706 12.8029 3.68195 12.2217 3.00511 11.5073C1.67231 10.1004 0.240234 8.08015 0.240234 5.83332C0.240234 4.30557 0.847134 2.84038 1.92742 1.76009C3.00771 0.679806 4.47289 0.0729065 6.00065 0.0729065C7.52841 0.0729065 8.99359 0.679806 10.0739 1.76009C11.1542 2.84038 11.7611 4.30557 11.7611 5.83332C11.7611 8.08015 10.329 10.1004 8.99619 11.5073C8.31935 12.2217 7.64424 12.8029 7.13892 13.2053C6.88585 13.4068 6.67433 13.5643 6.52508 13.6721C6.45043 13.726 6.39129 13.7675 6.35023 13.796C6.32969 13.8102 6.31368 13.8211 6.3025 13.8287L6.28939 13.8376L6.28563 13.8401L6.28447 13.8409C6.28447 13.8409 6.28378 13.8413 6.00065 13.4167ZM6.00065 13.4167L6.28378 13.8413C6.11233 13.9556 5.88869 13.9555 5.71724 13.8412L6.00065 13.4167Z" fill="#4E5562"/>
<path fill-rule="evenodd" clip-rule="evenodd" d="M6.00065 4.59374C5.31605 4.59374 4.76107 5.14872 4.76107 5.83332C4.76107 6.51793 5.31605 7.07291 6.00065 7.07291C6.68525 7.07291 7.24023 6.51793 7.24023 5.83332C7.24023 5.14872 6.68525 4.59374 6.00065 4.59374ZM3.74023 5.83332C3.74023 4.58493 4.75226 3.57291 6.00065 3.57291C7.24905 3.57291 8.26107 4.58493 8.26107 5.83332C8.26107 7.08172 7.24905 8.09374 6.00065 8.09374C4.75226 8.09374 3.74023 7.08172 3.74023 5.83332Z" fill="#4E5562"/>
</svg>
