<svg width="18" height="18" viewBox="0 0 18 18" fill="none" xmlns="http://www.w3.org/2000/svg">
<g clip-path="url(#clip0_5535_4340)">
<path fill-rule="evenodd" clip-rule="evenodd" d="M9.92123 1.43475C9.95729 1.07411 10.2789 0.810992 10.6395 0.847056C12.2944 1.01255 13.8591 1.7569 15.0883 2.98601C16.234 4.13177 17.0615 5.69474 17.2275 7.43783C17.2619 7.79863 16.9972 8.11898 16.6364 8.15334C16.2756 8.18771 15.9553 7.92307 15.9209 7.56227C15.7869 6.15536 15.1144 4.86834 14.1602 3.91409C13.1393 2.89321 11.854 2.28755 10.5089 2.15304C10.1483 2.11698 9.88517 1.79539 9.92123 1.43475ZM2.0797 2.89597C2.03797 2.91092 1.98632 2.92943 1.93174 2.94763C1.87404 2.96686 1.82495 3.0024 1.66326 3.16409C1.61192 3.21543 1.57907 3.26072 1.52179 3.43258C1.51404 3.45583 1.50499 3.47864 1.49469 3.50087C1.49318 3.50814 1.48995 3.52553 1.48715 3.55633C1.48173 3.61594 1.48068 3.68592 1.4805 3.78274C1.77334 6.00989 2.49306 8.14734 3.69848 9.99092L3.70571 10.0022C4.7779 11.7177 6.28153 13.2214 7.99703 14.2936L8.00835 14.3008C9.87028 15.5182 11.9342 16.3007 14.1311 16.5188C14.3241 16.5184 14.3812 16.5143 14.4917 16.4775C14.6636 16.4202 14.7088 16.3873 14.7602 16.336C14.9219 16.1743 14.9574 16.1252 14.9766 16.0675C14.9865 16.0381 14.9984 16.0093 15.0123 15.9816C15.0313 15.9434 15.053 15.8901 15.0692 15.8305C15.0856 15.7704 15.093 15.7169 15.093 15.675V13.425C15.093 13.2492 15.0346 13.0884 14.8313 12.7458C14.7346 12.6273 14.6049 12.549 14.3704 12.4987C13.6294 12.4121 12.8351 12.1704 12.1667 11.9476C12.1114 11.9292 12.0587 11.9034 12.0102 11.8711C12.0102 11.8711 12.0096 11.8707 12.008 11.8699C12.0064 11.8692 12.0035 11.8679 11.9988 11.8665C11.9892 11.8635 11.9724 11.8597 11.9462 11.858C11.8914 11.8543 11.8118 11.8608 11.7084 11.8867C11.6563 11.8997 11.6029 11.9063 11.5492 11.9063C11.517 11.9063 11.4919 11.9123 11.4572 11.931C11.4141 11.9542 11.3532 11.9991 11.2633 12.0891L10.2883 13.0641C10.0805 13.2719 9.75994 13.3162 9.50358 13.1726C7.52297 12.0635 5.86078 10.4013 4.75164 8.4207C4.60808 8.16433 4.65242 7.84378 4.86018 7.63602L5.78879 6.70739C5.92143 6.50658 5.99722 6.37724 6.03756 6.21588C6.06343 6.1124 6.05197 6.0666 5.97091 5.74259C5.97018 5.73965 5.96944 5.73668 5.96869 5.7337L5.96803 5.73172C5.75287 5.08633 5.51393 4.36961 5.4267 3.5677C5.39893 3.4663 5.3624 3.36641 5.31611 3.27898C5.26339 3.1794 5.20778 3.11428 5.15546 3.07504C5.13062 3.05641 5.10713 3.03604 5.08517 3.01408C4.99746 2.92637 4.79637 2.83129 4.57422 2.83129H2.32422C2.29164 2.83129 2.26292 2.83546 2.21281 2.85049C2.18352 2.85928 2.15048 2.87067 2.10198 2.88799C2.09493 2.89051 2.08749 2.89318 2.0797 2.89597ZM1.59495 1.67444C1.7535 1.61607 2.01778 1.51879 2.32422 1.51879H4.57422C5.08602 1.51879 5.61759 1.71144 5.97968 2.05339C6.43693 2.41649 6.62697 2.95524 6.71088 3.29089C6.71859 3.32174 6.72405 3.35311 6.72721 3.38475C6.79383 4.05087 6.99381 4.65858 7.22179 5.34252C7.22711 5.35845 7.2318 5.37459 7.23588 5.39088C7.24235 5.41677 7.24966 5.44443 7.25742 5.47378C7.32324 5.72279 7.42114 6.09313 7.31087 6.53421C7.20802 6.94559 7.00369 7.2517 6.85912 7.46828C6.85443 7.4753 6.8498 7.48223 6.84525 7.48907C6.82128 7.52503 6.79381 7.55853 6.76325 7.58908L6.14778 8.20457C7.04418 9.64725 8.27702 10.8801 9.7197 11.7765L10.3352 11.161C10.5932 10.903 10.9516 10.6244 11.4637 10.5961C11.8033 10.522 12.2492 10.4999 12.6507 10.7254C13.3011 10.9403 13.9671 11.1334 14.5467 11.1978C14.5656 11.1999 14.5843 11.2028 14.6029 11.2065C15.0874 11.3034 15.5511 11.5172 15.8992 11.9813C15.9128 11.9993 15.9253 12.0181 15.9369 12.0374C16.1676 12.4219 16.4055 12.8564 16.4055 13.425V15.675C16.4055 16.0088 16.3054 16.3169 16.2057 16.5283C16.0768 16.8772 15.8444 17.1086 15.7078 17.2446C15.701 17.2513 15.6945 17.2578 15.6883 17.2641C15.4396 17.5127 15.1849 17.6299 14.9067 17.7226C14.5804 17.8314 14.341 17.8314 14.1144 17.8313L14.0992 17.8313C14.0781 17.8313 14.057 17.8303 14.036 17.8282C11.5968 17.5922 9.3235 16.7277 7.29571 15.403C5.41549 14.2266 3.77267 12.5838 2.59629 10.7036C1.26146 8.65996 0.483774 6.31468 0.173367 3.90903C0.169774 3.88119 0.167972 3.85313 0.167972 3.82505C0.167972 3.82118 0.167971 3.81725 0.16797 3.81328C0.167952 3.70886 0.167928 3.57075 0.180037 3.43752C0.19111 3.3157 0.215714 3.14846 0.288791 2.98164C0.379714 2.71741 0.497257 2.47394 0.735183 2.23601C0.741443 2.22975 0.747935 2.22324 0.754659 2.21648C0.896498 2.07404 1.14216 1.82733 1.51669 1.70248C1.5387 1.69514 1.56493 1.68549 1.59495 1.67444ZM9.93072 4.37135C10.0018 4.01595 10.3475 3.78546 10.7029 3.85654C11.5852 4.03301 12.3755 4.47327 12.9883 5.08601C13.601 5.69873 14.0413 6.48902 14.2177 7.37135C14.2888 7.72675 14.0583 8.07247 13.7029 8.14356C13.3475 8.21463 13.0018 7.98415 12.9307 7.62875C12.8072 7.01107 12.4974 6.45135 12.0602 6.01408C11.6229 5.57681 11.0632 5.26709 10.4455 5.14355C10.0901 5.07247 9.85964 4.72675 9.93072 4.37135Z" fill="#CAD0D9"/>
</g>
<defs>
<clipPath id="clip0_5535_4340">
<rect width="18" height="18" fill="white"/>
</clipPath>
</defs>
</svg>
