<svg width="16" height="15" viewBox="0 0 16 15" fill="none" xmlns="http://www.w3.org/2000/svg">
<path d="M8.6792 0.371584C8.56689 0.144048 8.33515 0 8.0814 0C7.82765 0 7.59591 0.144048 7.48359 0.371584L5.57856 4.23098L1.31831 4.85368C1.06727 4.89037 0.858821 5.06637 0.780569 5.30771C0.702317 5.54905 0.767832 5.81389 0.949578 5.99091L4.03172 8.99291L3.30433 13.234C3.26143 13.4841 3.36426 13.7369 3.56958 13.886C3.7749 14.0352 4.04709 14.0548 4.2717 13.9367L8.0814 11.9332L11.8911 13.9367C12.1157 14.0548 12.3879 14.0352 12.5932 13.886C12.7985 13.7369 12.9014 13.4841 12.8585 13.234L12.1311 8.99291L15.2132 5.99091C15.395 5.81389 15.4605 5.54905 15.3822 5.30771C15.304 5.06637 15.0955 4.89037 14.8445 4.85368L10.5842 4.23098L8.6792 0.371584Z" fill="#FC9231"/>
</svg>
