<svg width="14" height="14" viewBox="0 0 14 14" fill="none" xmlns="http://www.w3.org/2000/svg">
<path d="M7.51042 3.5C7.51042 3.2181 7.28189 2.98958 7 2.98958C6.7181 2.98958 6.48958 3.2181 6.48958 3.5V7C6.48958 7.19333 6.59881 7.37007 6.77173 7.45653L9.10507 8.6232C9.3572 8.74926 9.6638 8.64707 9.78986 8.39493C9.91593 8.1428 9.81373 7.8362 9.5616 7.71014L7.51042 6.68455V3.5Z" fill="#333D4C"/>
<path fill-rule="evenodd" clip-rule="evenodd" d="M7 0.65625C3.49644 0.65625 0.65625 3.49644 0.65625 7C0.65625 10.5036 3.49644 13.3438 7 13.3438C10.5036 13.3438 13.3438 10.5036 13.3438 7C13.3438 3.49644 10.5036 0.65625 7 0.65625ZM1.67708 7C1.67708 4.06023 4.06023 1.67708 7 1.67708C9.93977 1.67708 12.3229 4.06023 12.3229 7C12.3229 9.93977 9.93977 12.3229 7 12.3229C4.06023 12.3229 1.67708 9.93977 1.67708 7Z" fill="#333D4C"/>
</svg>
